<?xml version="1.0" encoding="UTF-8"?>
<svg version="1.1" xmlns="http://www.w3.org/2000/svg" width="224" height="126">
<path d="M0 0 C73.92 0 147.84 0 224 0 C224 41.58 224 83.16 224 126 C150.08 126 76.16 126 0 126 C0 84.42 0 42.84 0 0 Z " fill="#FDFDFD" transform="translate(0,0)"/>
<path d="M0 0 C2.0661579 1.62340978 2.90711997 2.35492911 3.28515625 4.98046875 C2.63755253 11.39969865 0.6507153 15.50873779 -4 20 C-15.97916699 29.67888382 -28.80176581 33.47643367 -44 33 C-47.32072625 32.32124871 -49.8887235 31.38896272 -53 30 C-45.26889413 37.21569882 -37.00405423 38.54520367 -26.71875 38.2734375 C-21.71613167 37.90559792 -16.8827705 37.13694448 -12 36 C-12 36.66 -12 37.32 -12 38 C-14.475 38.495 -14.475 38.495 -17 39 C-17 39.66 -17 40.32 -17 41 C-18.670625 41.185625 -18.670625 41.185625 -20.375 41.375 C-24.03103677 41.6465813 -24.03103677 41.6465813 -26 44 C-28.49902798 44.4951724 -30.91568616 44.88146615 -33.4375 45.1875 C-34.11876953 45.28224609 -34.80003906 45.37699219 -35.50195312 45.47460938 C-38.74862757 45.89117583 -40.85429402 46.04856866 -44 45 C-44 44.34 -44 43.68 -44 43 C-36.08 42.505 -36.08 42.505 -28 42 C-30.083125 41.79375 -32.16625 41.5875 -34.3125 41.375 C-44.15876852 39.94281549 -52.066609 36.27476995 -58.3671875 28.421875 C-62.20167486 22.73435786 -65.82727749 16.51816752 -68 10 C-70.00016466 8.79117904 -70.00016466 8.79117904 -72 8 C-68.64574534 6.88191511 -66.41010364 7.21305301 -63 8 C-62.01 8 -61.02 8 -60 8 C-59.67 6.68 -59.34 5.36 -59 4 C-57.35 4.33 -55.7 4.66 -54 5 C-57.19668988 7.6486859 -60.39486597 9.93992341 -64 12 C-60.28972481 10.67084011 -57.01592832 8.89219441 -53.63525391 6.87670898 C-38.23590272 -2.2331088 -16.91525907 -10.69273248 0 0 Z " fill="#FAFDFC" transform="translate(188,20)"/>
<path d="M0 0 C0.76441406 -0.01611328 1.52882812 -0.03222656 2.31640625 -0.04882812 C8.49589443 -0.05407387 14.09275485 0.97160674 19.078125 4.8203125 C23.50139044 10.33607121 27.24462069 16.25788007 27.5625 23.5 C26.96319454 28.72251905 24.99745136 32.00382296 22.125 36.3125 C21.465 36.3125 20.805 36.3125 20.125 36.3125 C20.125 36.9725 20.125 37.6325 20.125 38.3125 C3.45276618 47.75790256 3.45276618 47.75790256 -3.875 48.3125 C-5.01582031 48.40402344 -6.15664062 48.49554688 -7.33203125 48.58984375 C-15.98096112 48.94912047 -23.44996412 48.0332842 -30.875 43.3125 C-33.20703125 40.63671875 -33.20703125 40.63671875 -34.875 38.3125 C-34.33875 38.54066406 -33.8025 38.76882812 -33.25 39.00390625 C-22.39224215 42.98627467 -10.34544729 41.58131253 0.359375 37.6328125 C4.29800064 35.75250817 7.7130218 33.36120813 11.1640625 30.703125 C13.125 29.3125 13.125 29.3125 15.125 29.3125 C15.3725 28.796875 15.62 28.28125 15.875 27.75 C17.125 25.3125 17.125 25.3125 19.25 21.9375 C21.15430273 18.53592107 22.14917409 16.23850068 21.125 12.3125 C13.156384 5.339961 3.50549269 5.61465547 -6.53271484 6.09912109 C-19.68607067 7.29737344 -32.11129091 15.13669394 -42.875 22.3125 C-43.865 21.9825 -44.855 21.6525 -45.875 21.3125 C-13.42937209 -0.05604913 -13.42937209 -0.05604913 0 0 Z " fill="#1290CB" transform="translate(168.875,10.6875)"/>
<path d="M0 0 C5.12196814 3.81169722 8.30164931 9.68203012 11.1796875 15.3046875 C14.00149796 20.78231956 16.91004802 24.48857743 22 28 C22.54914063 28.39058594 23.09828125 28.78117187 23.6640625 29.18359375 C30.33293375 33.19372999 38.42258064 33.30111181 46 34 C42.85253298 37.14746702 39.29059091 36.42732983 35 36.4375 C25.65303295 36.42439555 18.68100098 35.01145876 11.875 28.1875 C6.71580435 21.53950789 2.79859279 12.95935513 -0.0625 5.0703125 C-0.371875 4.38710938 -0.68125 3.70390625 -1 3 C-4.8822271 1.58828106 -6.5586591 1.81202147 -10.375 3.4375 C-11.674375 4.2109375 -11.674375 4.2109375 -13 5 C-13 5.66 -13 6.32 -13 7 C-13.99 7.495 -13.99 7.495 -15 8 C-13.54744301 11.82946843 -11.57104439 13.12050295 -8 15 C-8 14.34 -8 13.68 -8 13 C-6.88625 12.690625 -5.7725 12.38125 -4.625 12.0625 C-1.2054845 11.17673517 -1.2054845 11.17673517 1 10 C0.1665247 14.8335156 -2.93455959 16.61844855 -6.75 19.3125 C-7.75522705 20.03336792 -7.75522705 20.03336792 -8.78076172 20.76879883 C-25.60126902 32.60978552 -25.60126902 32.60978552 -33 32 C-34.03205088 25.46367775 -30.44789331 21.19251078 -27 16 C-26.61714844 15.35546875 -26.23429687 14.7109375 -25.83984375 14.046875 C-20.7089492 5.88158045 -9.96693279 -1.89371723 0 0 Z " fill="#EFF9F7" transform="translate(116,27)"/>
<path d="M0 0 C4.54202541 -0.08100045 9.08260304 -0.14050969 13.625 -0.1875 C15.55279297 -0.22520508 15.55279297 -0.22520508 17.51953125 -0.26367188 C19.38544922 -0.27817383 19.38544922 -0.27817383 21.2890625 -0.29296875 C23.00150146 -0.31653442 23.00150146 -0.31653442 24.74853516 -0.34057617 C28.45585907 0.04774917 30.84367704 1.04109429 34 3 C35.24423499 6.31795996 35.12906176 7.61281473 34 11 C34.66 11 35.32 11 36 11 C36 13.64 36 16.28 36 19 C33.69 19 31.38 19 29 19 C28.67 17.02 28.34 15.04 28 13 C21.4 12.67 14.8 12.34 8 12 C8 14.31 8 16.62 8 19 C5.36 19 2.72 19 0 19 C0 12.73 0 6.46 0 0 Z " fill="#0E0E0E" transform="translate(78,69)"/>
<path d="M0 0 C1.01725914 0.00636726 1.01725914 0.00636726 2.05506897 0.01286316 C4.19469027 0.02948934 6.33332572 0.06710701 8.47265625 0.10546875 C9.93423107 0.12053653 11.39582083 0.13422125 12.85742188 0.14648438 C16.41698022 0.17933898 19.97597181 0.23100634 23.53515625 0.29296875 C23.53515625 1.94296875 23.53515625 3.59296875 23.53515625 5.29296875 C13.30515625 5.29296875 3.07515625 5.29296875 -7.46484375 5.29296875 C-7.46484375 5.95296875 -7.46484375 6.61296875 -7.46484375 7.29296875 C-6.73370361 7.30755127 -6.00256348 7.32213379 -5.24926758 7.3371582 C-1.92477004 7.41179785 1.39874092 7.50840676 4.72265625 7.60546875 C5.87314453 7.62802734 7.02363281 7.65058594 8.20898438 7.67382812 C9.32080078 7.70927734 10.43261719 7.74472656 11.578125 7.78125 C12.5993042 7.80743408 13.6204834 7.83361816 14.67260742 7.8605957 C17.95272936 8.35604099 19.89073825 9.31062363 22.53515625 11.29296875 C23.16015625 13.79296875 23.16015625 13.79296875 22.53515625 16.29296875 C18.4884457 19.51468242 14.80622038 19.69668029 9.828125 19.5859375 C8.74003288 19.57957024 8.74003288 19.57957024 7.62995911 19.57307434 C5.32713734 19.55636418 3.02521072 19.51872835 0.72265625 19.48046875 C-0.84438835 19.46541191 -2.41144675 19.45172525 -3.97851562 19.43945312 C-7.80763332 19.40648606 -11.63608709 19.35475867 -15.46484375 19.29296875 C-15.46484375 17.97296875 -15.46484375 16.65296875 -15.46484375 15.29296875 C-0.61484375 14.79796875 -0.61484375 14.79796875 14.53515625 14.29296875 C14.86515625 13.63296875 15.19515625 12.97296875 15.53515625 12.29296875 C14.86983887 12.30344238 14.20452148 12.31391602 13.51904297 12.32470703 C10.48278635 12.3664734 7.44659039 12.39236027 4.41015625 12.41796875 C2.84007812 12.44310547 2.84007812 12.44310547 1.23828125 12.46875 C-8.69016575 12.53158827 -8.69016575 12.53158827 -13.46484375 10.29296875 C-15.46484375 8.29296875 -15.46484375 8.29296875 -15.52734375 5.85546875 C-14.46484375 3.29296875 -14.46484375 3.29296875 -11.36499023 1.65112305 C-7.53317876 0.13061524 -4.13405734 -0.05146129 0 0 Z " fill="#040404" transform="translate(52.46484375,68.70703125)"/>
<path d="M0 0 C1.11761719 0.01804687 2.23523438 0.03609375 3.38671875 0.0546875 C6.1337003 0.10164445 8.87890047 0.16730532 11.625 0.25 C11.625 1.9 11.625 3.55 11.625 5.25 C4.035 5.25 -3.555 5.25 -11.375 5.25 C-11.375 6.24 -11.375 7.23 -11.375 8.25 C-4.115 8.25 3.145 8.25 10.625 8.25 C10.625 9.57 10.625 10.89 10.625 12.25 C3.365 12.25 -3.895 12.25 -11.375 12.25 C-11.375 14.56 -11.375 16.87 -11.375 19.25 C-13.685 19.25 -15.995 19.25 -18.375 19.25 C-18.53749454 16.83063683 -18.65597817 14.42218141 -18.75 12 C-18.80027344 11.31808594 -18.85054688 10.63617188 -18.90234375 9.93359375 C-19.01097939 6.20377017 -18.65708307 4.55950782 -16.125 1.78125 C-11.21168534 -0.88394346 -5.4118431 -0.16573371 0 0 Z " fill="#171717" transform="translate(137.375,68.75)"/>
<path d="M0 0 C5.12196814 3.81169722 8.30164931 9.68203012 11.1796875 15.3046875 C14.00149796 20.78231956 16.91004802 24.48857743 22 28 C22.54914063 28.39058594 23.09828125 28.78117187 23.6640625 29.18359375 C30.33293375 33.19372999 38.42258064 33.30111181 46 34 C42.85253298 37.14746702 39.29059091 36.42732983 35 36.4375 C25.65303295 36.42439555 18.68100098 35.01145876 11.875 28.1875 C6.7078887 21.52930802 2.83422942 12.9643818 -0.078125 5.08203125 C-0.84396414 2.74104023 -0.84396414 2.74104023 -3.5 1.8125 C-10.2755501 2.1754759 -15.74807185 6.98239598 -21 11 C-19.54983806 7.36671383 -17.77807683 5.88258423 -14.5 3.8125 C-13.7059375 3.30332031 -12.911875 2.79414063 -12.09375 2.26953125 C-8.10498485 -0.14902971 -4.6314164 -0.76892241 0 0 Z " fill="#71C3CD" transform="translate(116,27)"/>
<path d="M0 0 C0.76441406 -0.01611328 1.52882812 -0.03222656 2.31640625 -0.04882812 C8.49589443 -0.05407387 14.09275485 0.97160674 19.078125 4.8203125 C24.33744623 11.3786227 27.8532312 17.75578342 27.125 26.3125 C26.795 26.3125 26.465 26.3125 26.125 26.3125 C25.63 22.3525 25.63 22.3525 25.125 18.3125 C23.64 18.8075 23.64 18.8075 22.125 19.3125 C22.125 18.260625 22.125 17.20875 22.125 16.125 C21.03638327 11.97464871 20.72280902 11.59504244 17.3125 9.4375 C8.74720739 4.58436986 -3.41103365 4.88763989 -12.83203125 7.11328125 C-23.63079494 10.45986297 -33.49642215 16.06011477 -42.875 22.3125 C-43.865 21.9825 -44.855 21.6525 -45.875 21.3125 C-13.42937209 -0.05604913 -13.42937209 -0.05604913 0 0 Z " fill="#1F9AD7" transform="translate(168.875,10.6875)"/>
<path d="M0 0 C1.01725914 0.00636726 1.01725914 0.00636726 2.05506897 0.01286316 C4.19469027 0.02948934 6.33332572 0.06710701 8.47265625 0.10546875 C9.93423107 0.12053653 11.39582083 0.13422125 12.85742188 0.14648438 C16.41698022 0.17933898 19.97597181 0.23100634 23.53515625 0.29296875 C23.53515625 1.94296875 23.53515625 3.59296875 23.53515625 5.29296875 C13.30515625 5.29296875 3.07515625 5.29296875 -7.46484375 5.29296875 C-7.46484375 5.95296875 -7.46484375 6.61296875 -7.46484375 7.29296875 C-6.47484375 7.62296875 -5.48484375 7.95296875 -4.46484375 8.29296875 C-4.79484375 9.61296875 -5.12484375 10.93296875 -5.46484375 12.29296875 C-11.82484375 11.69296875 -11.82484375 11.69296875 -14.46484375 10.04296875 C-15.46484375 8.29296875 -15.46484375 8.29296875 -15.58984375 5.79296875 C-14.17873149 2.65716373 -12.55506297 2.13030285 -9.44650269 0.89291382 C-6.27629799 -0.06686218 -3.2970051 -0.04104156 0 0 Z " fill="#1F1F1F" transform="translate(52.46484375,68.70703125)"/>
<path d="M0 0 C2.875 0.75 2.875 0.75 6 2 C6.66666667 3.33333333 7.33333333 4.66666667 8 6 C18.76950786 13.04160129 29.94182731 13.26605463 42.4375 11 C43.96131977 10.68059673 45.48363038 10.35308399 47 10 C47 10.66 47 11.32 47 12 C45.35 12.33 43.7 12.66 42 13 C42 13.66 42 14.32 42 15 C40.329375 15.185625 40.329375 15.185625 38.625 15.375 C34.96896323 15.6465813 34.96896323 15.6465813 33 18 C30.50097202 18.4951724 28.08431384 18.88146615 25.5625 19.1875 C24.88123047 19.28224609 24.19996094 19.37699219 23.49804688 19.47460938 C20.25137243 19.89117583 18.14570598 20.04856866 15 19 C15 18.34 15 17.68 15 17 C20.28 16.67 25.56 16.34 31 16 C27.8753125 15.690625 27.8753125 15.690625 24.6875 15.375 C14.57996611 13.92376662 6.59341157 9.84081375 0 2 C0 1.34 0 0.68 0 0 Z " fill="#C9F7FC" transform="translate(129,46)"/>
<path d="M0 0 C0.495 1.485 0.495 1.485 1 3 C-24.20837291 22.70718755 -24.20837291 22.70718755 -33 22 C-33.74737188 16.02102497 -31.3231898 12.67620279 -28 8 C-26.56911472 10.86177057 -27.40008303 12.93375773 -28 16 C-16.74054846 14.83522915 -8.514831 6.88228821 0 0 Z " fill="#429EC8" transform="translate(116,37)"/>
<path d="M0 0 C7.04602367 5.2435525 10.72182429 14.08842509 14 22 C13.01 22.495 13.01 22.495 12 23 C10.5393715 20.35261084 10 19.10551666 10 16 C9.34 16 8.68 16 8 16 C7.34 14.35 6.68 12.7 6 11 C5.67 11.66 5.34 12.32 5 13 C4.34 13 3.68 13 3 13 C2.78085938 12.28972656 2.56171875 11.57945313 2.3359375 10.84765625 C0.57589607 5.232622 0.57589607 5.232622 -3.625 1.5 C-10.31646196 2.4913277 -15.72622199 6.96568134 -21 11 C-19.54983806 7.36671383 -17.77807683 5.88258423 -14.5 3.8125 C-13.7059375 3.30332031 -12.911875 2.79414063 -12.09375 2.26953125 C-8.10498485 -0.14902971 -4.6314164 -0.76892241 0 0 Z " fill="#7BBEC3" transform="translate(116,27)"/>
<path d="M0 0 C2.97 0.495 2.97 0.495 6 1 C2.80331012 3.6486859 -0.39486597 5.93992341 -4 8 C-1.25323037 6.97977128 1.17374222 5.89494656 3.6875 4.375 C6 3 6 3 8 3 C6.87344302 6.26701523 6.13220701 6.93524554 2.9375 8.5 C-0.07151277 9.67676953 -0.07151277 9.67676953 -1 11.9375 C-1.15372967 14.06521865 -1.15372967 14.06521865 0 16 C1.24546405 18.49092811 0.7767578 19.41080733 0 22 C-1.14878332 19.89739659 -2.29411192 17.79303461 -3.4375 15.6875 C-3.76298828 15.09259766 -4.08847656 14.49769531 -4.42382812 13.88476562 C-5.83737384 11.27626374 -7.05948633 8.82154101 -8 6 C-10.00016466 4.79117904 -10.00016466 4.79117904 -12 4 C-8.64574534 2.88191511 -6.41010364 3.21305301 -3 4 C-2.01 4 -1.02 4 0 4 C0 2.68 0 1.36 0 0 Z " fill="#DAF3F9" transform="translate(128,24)"/>
<path d="M0 0 C0 0.99 0 1.98 0 3 C1.32 3.33 2.64 3.66 4 4 C3.1028125 4.25652344 2.205625 4.51304688 1.28125 4.77734375 C-10.10723249 8.27153724 -20.08230792 13.38820528 -30 20 C-30.99 19.67 -31.98 19.34 -33 19 C-4.15073529 0 -4.15073529 0 0 0 Z " fill="#2991C6" transform="translate(156,13)"/>
<path d="M0 0 C2.97 0.495 2.97 0.495 6 1 C6.33 2.32 6.66 3.64 7 5 C1.7891714 10.04273735 -3.96090748 11 -11 11 C-11 7 -11 7 -9 5 C-6.31160615 4.73008094 -3.70858064 4.91262643 -1 5 C-0.67 3.35 -0.34 1.7 0 0 Z " fill="#0693D5" transform="translate(176,46)"/>
<path d="M0 0 C10.23 0 20.46 0 31 0 C28 4 28 4 25.41210938 4.37817383 C24.39955078 4.32169678 23.38699219 4.26521973 22.34375 4.20703125 C21.23902344 4.15353516 20.13429688 4.10003906 18.99609375 4.04492188 C17.84238281 3.96822266 16.68867187 3.89152344 15.5 3.8125 C13.76943359 3.72645508 13.76943359 3.72645508 12.00390625 3.63867188 C3.53795187 3.17931729 3.53795187 3.17931729 0 2 C0 1.34 0 0.68 0 0 Z " fill="#E0E0E0" transform="translate(45,74)"/>
<path d="M0 0 C0.66 0.33 1.32 0.66 2 1 C-3.11053413 10.65323113 -11.10681664 17.88780525 -21.375 21.9375 C-25 23 -25 23 -29 23 C-29 22.34 -29 21.68 -29 21 C-25.7 20.01 -22.4 19.02 -19 18 C-19 17.34 -19 16.68 -19 16 C-18.44570312 15.81824219 -17.89140625 15.63648438 -17.3203125 15.44921875 C-16.23363281 15.07216797 -16.23363281 15.07216797 -15.125 14.6875 C-14.40570313 14.44386719 -13.68640625 14.20023438 -12.9453125 13.94921875 C-10.66005095 13.03664453 -10.66005095 13.03664453 -9 10 C-8.01 10 -7.02 10 -6 10 C-4.79371992 7.66785852 -3.8345262 5.50357861 -3 3 C-1.4375 1.3125 -1.4375 1.3125 0 0 Z " fill="#D6F8FD" transform="translate(189,28)"/>
<path d="M0 0 C6.6 0 13.2 0 20 0 C20 1.32 20 2.64 20 4 C13.07 4 6.14 4 -1 4 C-0.67 2.68 -0.34 1.36 0 0 Z " fill="#010101" transform="translate(128,77)"/>
<path d="M0 0 C1.8984375 2.87109375 1.8984375 2.87109375 3.375 6.4375 C4.12910156 8.19900391 4.12910156 8.19900391 4.8984375 9.99609375 C6 13 6 13 6 15 C5.34 15 4.68 15 4 15 C3.34 14.34 2.68 13.68 2 13 C2 13.66 2 14.32 2 15 C0.68 15 -0.64 15 -2 15 C-2 15.66 -2 16.32 -2 17 C-3.32 16.67 -4.64 16.34 -6 16 C-3.69 14.35 -1.38 12.7 1 11 C0.67 10.67 0.34 10.34 0 10 C-0.99 10.495 -0.99 10.495 -2 11 C-2 9.68 -2 8.36 -2 7 C-1.34 7 -0.68 7 0 7 C-0.33 5.35 -0.66 3.7 -1 2 C-1.70125 2.350625 -2.4025 2.70125 -3.125 3.0625 C-6.50268586 4.1639193 -8.58080593 3.79516141 -12 3 C-7.60616376 -0.36860778 -5.57477362 -1.74299884 0 0 Z " fill="#CEF5FA" transform="translate(115,29)"/>
<path d="M0 0 C1.74216797 0.15275391 1.74216797 0.15275391 3.51953125 0.30859375 C4.39996094 0.39238281 5.28039062 0.47617188 6.1875 0.5625 C5.1975 1.0575 5.1975 1.0575 4.1875 1.5625 C4.1875 2.8825 4.1875 4.2025 4.1875 5.5625 C1.55437508 5.63773214 -0.73410446 5.580139 -3.3125 5 C-6.10637237 4.51107233 -8.08567724 4.86131701 -10.8125 5.5625 C-11.1425 3.9125 -11.4725 2.2625 -11.8125 0.5625 C-7.71524731 -0.47917441 -4.19754776 -0.38159525 0 0 Z " fill="#6B6B6B" transform="translate(124.8125,95.4375)"/>
<path d="M0 0 C0.98613281 0.00322266 1.97226563 0.00644531 2.98828125 0.00976562 C4.02082031 0.01814453 5.05335938 0.02652344 6.1171875 0.03515625 C7.67759766 0.04192383 7.67759766 0.04192383 9.26953125 0.04882812 C11.84380712 0.06063673 14.41796896 0.0771055 16.9921875 0.09765625 C16.9921875 1.08765625 16.9921875 2.07765625 16.9921875 3.09765625 C9.4021875 3.09765625 1.8121875 3.09765625 -6.0078125 3.09765625 C-6.3378125 2.43765625 -6.6678125 1.77765625 -7.0078125 1.09765625 C-4.50284246 -0.15482877 -2.79927976 -0.01608781 0 0 Z " fill="#010101" transform="translate(132.0078125,69.90234375)"/>
<path d="M0 0 C4.9947488 3.88341719 8.17991411 10.04810994 10 16 C10.27890464 18.45166174 10.21055571 20.52597044 10 23 C9.67 23 9.34 23 9 23 C8.67 20.36 8.34 17.72 8 15 C7.01 15.33 6.02 15.66 5 16 C5 14.948125 5 13.89625 5 12.8125 C3.90838211 8.65070679 3.61897404 8.31386796 0.1875 6.1875 C-1.19253982 5.42886648 -2.58883641 4.69903651 -4 4 C-4.74636719 3.62488281 -5.49273437 3.24976563 -6.26171875 2.86328125 C-7.12216797 2.43595703 -7.12216797 2.43595703 -8 2 C-4.91190305 0.23537317 -3.76687864 0 0 0 Z " fill="#2F8FBB" transform="translate(186,14)"/>
<path d="M0 0 C0 0.66 0 1.32 0 2 C-1.65 2.33 -3.3 2.66 -5 3 C-5 3.66 -5 4.32 -5 5 C-6.11375 5.12375 -7.2275 5.2475 -8.375 5.375 C-12.03103677 5.6465813 -12.03103677 5.6465813 -14 8 C-16.49902798 8.4951724 -18.91568616 8.88146615 -21.4375 9.1875 C-22.11876953 9.28224609 -22.80003906 9.37699219 -23.50195312 9.47460938 C-26.74862757 9.89117583 -28.85429402 10.04856866 -32 9 C-32 8.34 -32 7.68 -32 7 C-24.08 6.505 -24.08 6.505 -16 6 C-18.97 5.505 -18.97 5.505 -22 5 C-22 4.67 -22 4.34 -22 4 C-20.83984375 3.94392578 -20.83984375 3.94392578 -19.65625 3.88671875 C-13.06145447 3.47046309 -6.15514476 0 0 0 Z " fill="#E0F8FC" transform="translate(176,56)"/>
<path d="M0 0 C7.26 0 14.52 0 22 0 C22 0.99 22 1.98 22 3 C14.74 3 7.48 3 0 3 C0 2.01 0 1.02 0 0 Z " fill="#D7D7D7" transform="translate(126,74)"/>
<path d="M0 0 C2 1 2 1 2.9375 3.5 C3.288125 4.325 3.63875 5.15 4 6 C4.99 6.33 5.98 6.66 7 7 C6.67 8.32 6.34 9.64 6 11 C-0.36 10.4 -0.36 10.4 -3 8.75 C-4 7 -4 7 -3.875 4.4375 C-3 2 -3 2 0 0 Z " fill="#161616" transform="translate(41,70)"/>
<path d="M0 0 C2.475 0.99 2.475 0.99 5 2 C5.33 8.27 5.66 14.54 6 21 C5.34 21 4.68 21 4 21 C3.67 21.99 3.34 22.98 3 24 C0 26 0 26 -3 26 C-3 25.34 -3 24.68 -3 24 C-2.34 24 -1.68 24 -1 24 C-0.31379969 22.67661368 0.34786461 21.34050052 1 20 C1.37125 19.2575 1.7425 18.515 2.125 17.75 C4.27071616 11.00632065 3.04567784 6.09135568 0 0 Z " fill="#C9F4FC" transform="translate(192,23)"/>
<path d="M0 0 C0.33 0.99 0.66 1.98 1 3 C-1.55947051 4.94152771 -4.12310313 6.87748513 -6.6875 8.8125 C-7.7693457 9.63331055 -7.7693457 9.63331055 -8.87304688 10.47070312 C-19.03886719 18.12988281 -19.03886719 18.12988281 -22.3125 17.6875 C-22.869375 17.460625 -23.42625 17.23375 -24 17 C-23.01 17 -22.02 17 -21 17 C-21 16.34 -21 15.68 -21 15 C-19.23626997 13.70182307 -17.41086049 12.48705117 -15.5625 11.3125 C-10.14349194 7.79625159 -5.02227974 4.05840787 0 0 Z " fill="#398FA4" transform="translate(116,37)"/>
<path d="M0 0 C2 3 2 3 2 6 C2.66 6 3.32 6 4 6 C5.52448631 8.9826906 6.93940067 11.818202 8 15 C8.99 15.66 9.98 16.32 11 17 C8.375 17.0625 8.375 17.0625 5 16 C1.78949216 12.35404397 -1.45960661 7.94510929 -2 3 C-1.34 2.01 -0.68 1.02 0 0 Z " fill="#5BC2C4" transform="translate(122,37)"/>
<path d="M0 0 C0.66 0 1.32 0 2 0 C2 0.99 2 1.98 2 3 C3.98 2.67 5.96 2.34 8 2 C8.33 3.65 8.66 5.3 9 7 C4.31034294 8.11658501 1.46236469 7.80619523 -3 6 C-3 4.68 -3 3.36 -3 2 C-2.01 2 -1.02 2 0 2 C0 1.34 0 0.68 0 0 Z " fill="#B2B2B2" transform="translate(96,94)"/>
<path d="M0 0 C6.6 0 13.2 0 20 0 C19.67 0.99 19.34 1.98 19 3 C12.73 3 6.46 3 0 3 C0 2.01 0 1.02 0 0 Z " fill="#DADADA" transform="translate(86,74)"/>
<path d="M0 0 C5.28 0 10.56 0 16 0 C15.34 1.98 14.68 3.96 14 6 C12 5 12 5 11 4 C9.68 4 8.36 4 7 4 C6.67 3.67 6.34 3.34 6 3 C4.32457024 3.28604898 2.65614657 3.61781233 1 4 C0.67 2.68 0.34 1.36 0 0 Z " fill="#6C6C6C" transform="translate(133,96)"/>
<path d="M0 0 C0.66 0 1.32 0 2 0 C2 0.66 2 1.32 2 2 C5.63 2 9.26 2 13 2 C13 3.32 13 4.64 13 6 C12.01 6.33 11.02 6.66 10 7 C9.34 5.68 8.68 4.36 8 3 C8 3.99 8 4.98 8 6 C5.36 6 2.72 6 0 6 C0 4.02 0 2.04 0 0 Z " fill="#7B7B7B" transform="translate(57,94)"/>
<path d="M0 0 C1.32 0.33 2.64 0.66 4 1 C2.10934188 2.4654862 0.21298003 3.92234703 -1.6875 5.375 C-2.48317383 5.99375 -2.48317383 5.99375 -3.29492188 6.625 C-6.40498266 8.99093582 -9.29378434 10.74855056 -13 12 C-13 11.34 -13 10.68 -13 10 C-7.52380952 5 -7.52380952 5 -5 5 C-5 4.34 -5 3.68 -5 3 C-3.35 2.67 -1.7 2.34 0 2 C0 1.34 0 0.68 0 0 Z " fill="#DDF5FE" transform="translate(108,40)"/>
<path d="M0 0 C0.70125 -0.02578125 1.4025 -0.0515625 2.125 -0.078125 C2.74375 0.03015625 3.3625 0.1384375 4 0.25 C4.66 1.24 5.32 2.23 6 3.25 C5.01 4.735 5.01 4.735 4 6.25 C3.67 5.26 3.34 4.27 3 3.25 C0.47933969 2.18054987 0.47933969 2.18054987 -3 2.25 C-8.06398364 4.62274705 -12.57059276 7.86160552 -17 11.25 C-15.54983806 7.61671383 -13.77807683 6.13258423 -10.5 4.0625 C-9.7059375 3.55332031 -8.911875 3.04414063 -8.09375 2.51953125 C-5.17556241 0.7501078 -3.39683407 0.07493016 0 0 Z " fill="#9DC6C5" transform="translate(112,26.75)"/>
<path d="M0 0 C1.32 0 2.64 0 4 0 C6.41825548 7.82888465 6.41825548 7.82888465 4.75 12.5 C3 15 3 15 1 16 C1.33 15.34 1.66 14.68 2 14 C3.28687011 10.13938967 3.13757618 7.05849717 3 3 C2.01 3.495 2.01 3.495 1 4 C0.34786708 6.02463255 0.34786708 6.02463255 0 8 C-1.125 6.25 -1.125 6.25 -2 4 C-1.125 1.75 -1.125 1.75 0 0 Z " fill="#1A8EC8" transform="translate(190,29)"/>
<path d="M0 0 C0.33 0.99 0.66 1.98 1 3 C0.16855469 3.48210938 -0.66289062 3.96421875 -1.51953125 4.4609375 C-2.60621094 5.09257812 -3.69289062 5.72421875 -4.8125 6.375 C-5.89144531 7.00148438 -6.97039062 7.62796875 -8.08203125 8.2734375 C-10.08831093 9.46055346 -12.06034059 10.70689373 -14 12 C-14.99 11.67 -15.98 11.34 -17 11 C-11.39 7.37 -5.78 3.74 0 0 Z " fill="#408FB8" transform="translate(140,21)"/>
<path d="M0 0 C0 0.66 0 1.32 0 2 C0.66 2 1.32 2 2 2 C2.33 1.34 2.66 0.68 3 0 C3.33 0.66 3.66 1.32 4 2 C4.99 2 5.98 2 7 2 C6.67 2.66 6.34 3.32 6 4 C6.33 4.33 6.66 4.66 7 5 C6.34 5.66 5.68 6.32 5 7 C2.4375 6.75 2.4375 6.75 0 6 C-0.33 5.34 -0.66 4.68 -1 4 C-1.66 4.66 -2.32 5.32 -3 6 C-3.33 4.35 -3.66 2.7 -4 1 C-2 0 -2 0 0 0 Z " fill="#6B6B6B" transform="translate(42,94)"/>
<path d="M0 0 C1.86790938 2.54714915 2 3.80869 2 7 C1.34 7 0.68 7 0 7 C-0.33 5.35 -0.66 3.7 -1 2 C-1.70125 2.350625 -2.4025 2.70125 -3.125 3.0625 C-6.50268586 4.1639193 -8.58080593 3.79516141 -12 3 C-7.546811 -0.41411157 -5.65160741 -1.53064367 0 0 Z " fill="#E1FAF9" transform="translate(115,29)"/>
<path d="M0 0 C0.70125 0.07863281 1.4025 0.15726563 2.125 0.23828125 C4 0.6875 4 0.6875 6 2.6875 C3.47524538 3.94987731 1.68799534 3.78606404 -1.125 3.75 C-2.03507813 3.74097656 -2.94515625 3.73195313 -3.8828125 3.72265625 C-4.58148438 3.71105469 -5.28015625 3.69945312 -6 3.6875 C-6 2.6975 -6 1.7075 -6 0.6875 C-3.63106495 -0.49696753 -2.5933174 -0.31939755 0 0 Z " fill="#0F8FCC" transform="translate(162,12.3125)"/>
<path d="M0 0 C2.64 0 5.28 0 8 0 C8 1.65 8 3.3 8 5 C5.36 5.33 2.72 5.66 0 6 C0 4.02 0 2.04 0 0 Z " fill="#898989" transform="translate(71,96)"/>
<path d="M0 0 C-0.33 0.99 -0.66 1.98 -1 3 C-10.9 3 -20.8 3 -31 3 C-31 2.67 -31 2.34 -31 2 C-29.78884521 1.96241577 -29.78884521 1.96241577 -28.55322266 1.92407227 C-24.91031083 1.80834513 -21.26767274 1.68551365 -17.625 1.5625 C-15.71847656 1.50352539 -15.71847656 1.50352539 -13.7734375 1.44335938 C-11.95585938 1.38051758 -11.95585938 1.38051758 -10.1015625 1.31640625 C-8.42054443 1.26141968 -8.42054443 1.26141968 -6.70556641 1.20532227 C-4.15110177 1.01146694 -2.49433693 0 0 0 Z " fill="#D5D5D5" transform="translate(68,81)"/>
<path d="M0 0 C0 0.66 0 1.32 0 2 C-2.07914664 2.70005949 -4.16351586 3.38462244 -6.25 4.0625 C-7.41015625 4.44535156 -8.5703125 4.82820313 -9.765625 5.22265625 C-12.80077085 5.95211763 -14.15703213 6.11889082 -17 5 C-14.91999989 4.15838146 -12.83585854 3.32699237 -10.75 2.5 C-9.58984375 2.0359375 -8.4296875 1.571875 -7.234375 1.09375 C-4 0 -4 0 0 0 Z " fill="#D2F2FA" transform="translate(160,17)"/>
<path d="M0 0 C2.24973447 -0.054138 4.49984383 -0.09285491 6.75 -0.125 C8.00296875 -0.14820313 9.2559375 -0.17140625 10.546875 -0.1953125 C13.72820492 -0.01537302 15.36521896 0.31001418 18 2 C18 2.66 18 3.32 18 4 C16.35 4.33 14.7 4.66 13 5 C12.67 4.01 12.34 3.02 12 2 C8.04 1.67 4.08 1.34 0 1 C0 0.67 0 0.34 0 0 Z " fill="#1B8BC3" transform="translate(164,11)"/>
<path d="M0 0 C0.33 0.99 0.66 1.98 1 3 C-0.2065625 3.6496875 -0.2065625 3.6496875 -1.4375 4.3125 C-4.27846354 5.80474002 -4.27846354 5.80474002 -5 9 C-6.875 9.8125 -6.875 9.8125 -9 10 C-9.99 9.34 -10.98 8.68 -12 8 C-11.21753906 7.50628906 -10.43507813 7.01257812 -9.62890625 6.50390625 C-8.61699219 5.86324219 -7.60507813 5.22257812 -6.5625 4.5625 C-5.55316406 3.92441406 -4.54382813 3.28632812 -3.50390625 2.62890625 C-1.15446165 1.22350458 -1.15446165 1.22350458 0 0 Z " fill="#D3F8FC" transform="translate(108,46)"/>
<path d="M0 0 C0 0.33 0 0.66 0 1 C-0.92941406 1.04898437 -1.85882813 1.09796875 -2.81640625 1.1484375 C-12.07660933 1.69677146 -12.07660933 1.69677146 -21 4 C-21 3.01 -21 2.02 -21 1 C-14.04359209 -1.81568891 -7.33438993 -0.75276679 0 0 Z " fill="#BEEAF5" transform="translate(174,10)"/>
<path d="M0 0 C0.33 0.99 0.66 1.98 1 3 C-0.40552299 4.03612271 -1.82491694 5.05344925 -3.25 6.0625 C-4.43335937 6.91521484 -4.43335937 6.91521484 -5.640625 7.78515625 C-8 9 -8 9 -10.296875 8.68359375 C-10.85890625 8.45800781 -11.4209375 8.23242188 -12 8 C-11.01 8 -10.02 8 -9 8 C-9 7.34 -9 6.68 -9 6 C-7.03125 4.4921875 -7.03125 4.4921875 -4.5 2.875 C-3.24703125 2.06675781 -3.24703125 2.06675781 -1.96875 1.2421875 C-0.99421875 0.62730469 -0.99421875 0.62730469 0 0 Z " fill="#378DB5" transform="translate(104,46)"/>
<path d="M0 0 C3.66747938 1.83373969 4.74129801 6.26585077 6 10 C6.29454579 12.45901107 6.21136649 14.51644372 6 17 C5.67 17 5.34 17 5 17 C4.67 14.36 4.34 11.72 4 9 C3.01 9.33 2.02 9.66 1 10 C0 3.375 0 3.375 0 0 Z " fill="#4390B7" transform="translate(190,20)"/>
<path d="M0 0 C0.66 0.33 1.32 0.66 2 1 C2 1.66 2 2.32 2 3 C1.34 3 0.68 3 0 3 C-0.33 3.99 -0.66 4.98 -1 6 C-4 8 -4 8 -7 8 C-7 7.34 -7 6.68 -7 6 C-6.34 6 -5.68 6 -5 6 C-4.731875 5.38125 -4.46375 4.7625 -4.1875 4.125 C-3 2 -3 2 0 0 Z " fill="#D9F5FB" transform="translate(196,41)"/>
<path d="M0 0 C1 2 1 2 0.0625 5.125 C-0.288125 6.07375 -0.63875 7.0225 -1 8 C-1.66 8 -2.32 8 -3 8 C-2.67 9.65 -2.34 11.3 -2 13 C-2.99 13 -3.98 13 -5 13 C-4.54996653 7.37458159 -3.31558515 4.38512875 0 0 Z " fill="#368EB2" transform="translate(88,45)"/>
<path d="M0 0 C1.65 0 3.3 0 5 0 C4.79375 0.5775 4.5875 1.155 4.375 1.75 C3.76871373 4.02757055 3.76871373 4.02757055 5 6 C6.24546405 8.49092811 5.7767578 9.41080733 5 12 C4.16180842 10.37750059 3.3295884 8.75191503 2.5 7.125 C2.0359375 6.22007813 1.571875 5.31515625 1.09375 4.3828125 C0 2 0 2 0 0 Z " fill="#E3FCFD" transform="translate(123,34)"/>
<path d="M0 0 C0.66 0.33 1.32 0.66 2 1 C2 1.66 2 2.32 2 3 C-1.66305234 3.74926071 -4.42355152 4.2380014 -8 3 C-8 2.34 -8 1.68 -8 1 C-5.26094655 -0.36952673 -3.02912668 -0.12621361 0 0 Z " fill="#0394E2" transform="translate(160,54)"/>
<path d="M0 0 C1.32 0 2.64 0 4 0 C4 1.98 4 3.96 4 6 C2.68 6.33 1.36 6.66 0 7 C-1.125 2.25 -1.125 2.25 0 0 Z " fill="#919191" transform="translate(83,94)"/>
<path d="M0 0 C0.66 0.33 1.32 0.66 2 1 C-0.30718811 5.28477792 -2.32966073 8.72291137 -6 12 C-5.14973567 6.89841404 -3.86224906 3.51113551 0 0 Z " fill="#C7F3FC" transform="translate(189,28)"/>
<path d="M0 0 C0.99 0.33 1.98 0.66 3 1 C2.67 1.33 2.34 1.66 2 2 C2.99 2.33 3.98 2.66 5 3 C5.33 2.01 5.66 1.02 6 0 C6.33 1.32 6.66 2.64 7 4 C4.37684968 5.31157516 2.76966564 4.89649988 -0.125 4.5625 C-1.03507813 4.46066406 -1.94515625 4.35882813 -2.8828125 4.25390625 C-3.58148438 4.17011719 -4.28015625 4.08632812 -5 4 C-4.360625 3.71125 -3.72125 3.4225 -3.0625 3.125 C-0.84793921 2.17176549 -0.84793921 2.17176549 0 0 Z " fill="#D8D8D8" transform="translate(139,97)"/>
<path d="M0 0 C0.99 0 1.98 0 3 0 C5 3 5 3 4.625 5.1875 C4.41875 5.785625 4.2125 6.38375 4 7 C3.01 7 2.02 7 1 7 C0.67 4.69 0.34 2.38 0 0 Z " fill="#62C1C7" transform="translate(117,30)"/>
<path d="M0 0 C3.3 0.99 6.6 1.98 10 3 C9.67 4.32 9.34 5.64 9 7 C4.60213533 5.04539348 2.99332739 3.99110319 0 0 Z " fill="#3C98BD" transform="translate(134,49)"/>
<path d="M0 0 C0.99 0 1.98 0 3 0 C2.71125 0.680625 2.4225 1.36125 2.125 2.0625 C0.87402645 5.32893093 -0.07447955 8.62846123 -1 12 C-1.33 12 -1.66 12 -2 12 C-2.28571429 3.42857143 -2.28571429 3.42857143 0 0 Z " fill="#D4F3FB" transform="translate(84,46)"/>
<path d="M0 0 C-0.99 0.495 -0.99 0.495 -2 1 C-2 2.32 -2 3.64 -2 5 C-3.65 5 -5.3 5 -7 5 C-7 3.68 -7 2.36 -7 1 C-4.53721199 -0.231394 -2.7204945 -0.07159196 0 0 Z " fill="#989898" transform="translate(131,96)"/>
<path d="M0 0 C3.625 0.375 3.625 0.375 7 1 C7 1.66 7 2.32 7 3 C4.1875 3.625 4.1875 3.625 1 4 C0.01 3.34 -0.98 2.68 -2 2 C-1.34 1.34 -0.68 0.68 0 0 Z " fill="#0299E1" transform="translate(167,51)"/>
<path d="M0 0 C0.66 0.33 1.32 0.66 2 1 C2 1.66 2 2.32 2 3 C2.99 3 3.98 3 5 3 C5.33 4.32 5.66 5.64 6 7 C5.34 7 4.68 7 4 7 C4 6.01 4 5.02 4 4 C1.36 4.33 -1.28 4.66 -4 5 C-4 4.34 -4 3.68 -4 3 C-3.01 2.34 -2.02 1.68 -1 1 C-0.67 0.67 -0.34 0.34 0 0 Z " fill="#ECFCFD" transform="translate(117,41)"/>
<path d="M0 0 C4.35535069 1.16142685 6.64619703 2.07699505 9 6 C7.02 6 5.04 6 3 6 C3 5.34 3 4.68 3 4 C2.0206121 2.97980427 1.02104551 1.97850195 0 1 C0 0.67 0 0.34 0 0 Z " fill="#D7FAFE" transform="translate(182,18)"/>
<path d="M0 0 C0 0.66 0 1.32 0 2 C-4.55426184 4.66590937 -7.73946963 5.31563182 -13 5 C-13 4.67 -13 4.34 -13 4 C-12.37351562 3.79503906 -11.74703125 3.59007812 -11.1015625 3.37890625 C-10.28429687 3.10949219 -9.46703125 2.84007812 -8.625 2.5625 C-7.81289062 2.29566406 -7.00078125 2.02882812 -6.1640625 1.75390625 C-1.12953368 0 -1.12953368 0 0 0 Z " fill="#DEF8FE" transform="translate(96,55)"/>
<path d="M0 0 C0 0.66 0 1.32 0 2 C1.32 2.33 2.64 2.66 4 3 C-0.68965706 4.11658501 -3.53763531 3.80619523 -8 2 C-8 1.67 -8 1.34 -8 1 C-2.25 0 -2.25 0 0 0 Z " fill="#2694D1" transform="translate(152,55)"/>
<path d="M0 0 C2.97 0 5.94 0 9 0 C8.01 0.495 8.01 0.495 7 1 C7 1.66 7 2.32 7 3 C4.69 3 2.38 3 0 3 C0 2.01 0 1.02 0 0 Z " fill="#108FBF" transform="translate(143,53)"/>
<path d="M0 0 C1.11375 0.3403125 1.11375 0.3403125 2.25 0.6875 C-0.30991624 2.69886276 -2.79590299 4.31595496 -5.75 5.6875 C-6.08 4.6975 -6.41 3.7075 -6.75 2.6875 C-4.29511132 0.41445492 -3.41240272 -0.38777304 0 0 Z " fill="#E9FAF9" transform="translate(105.75,26.3125)"/>
<path d="M0 0 C2.475 0.495 2.475 0.495 5 1 C5 1.99 5 2.98 5 4 C3.68 4.33 2.36 4.66 1 5 C0.67 3.35 0.34 1.7 0 0 Z " fill="#8F8F8F" transform="translate(113,96)"/>
<path d="M0 0 C1.65 0 3.3 0 5 0 C4.67 1.32 4.34 2.64 4 4 C2.35 4 0.7 4 -1 4 C-0.67 2.68 -0.34 1.36 0 0 Z " fill="#F9FEED" transform="translate(121,24)"/>
<path d="M0 0 C2.31 0 4.62 0 7 0 C4.31158141 2.25245881 2.35358125 3.88213958 -1 5 C-0.67 3.35 -0.34 1.7 0 0 Z " fill="#D4F4FA" transform="translate(138,18)"/>
<path d="M0 0 C1.32 0.33 2.64 0.66 4 1 C4 2.32 4 3.64 4 5 C2.68 5 1.36 5 0 5 C0 3.35 0 1.7 0 0 Z " fill="#8D8D8D" transform="translate(101,96)"/>
<path d="M0 0 C4.455 1.98 4.455 1.98 9 4 C9 4.33 9 4.66 9 5 C6.36 4.67 3.72 4.34 1 4 C0.67 2.68 0.34 1.36 0 0 Z " fill="#7FBCCF" transform="translate(137,55)"/>
<path d="M0 0 C0.625 1.875 0.625 1.875 1 4 C0.34 4.66 -0.32 5.32 -1 6 C-2.32 5.01 -3.64 4.02 -5 3 C-2.25 0 -2.25 0 0 0 Z " fill="#1493D4" transform="translate(189,35)"/>
<path d="M0 0 C0.33 0.66 0.66 1.32 1 2 C1.99 2 2.98 2 4 2 C4 3.32 4 4.64 4 6 C2.68 6 1.36 6 0 6 C0 4.02 0 2.04 0 0 Z " fill="#797979" transform="translate(108,94)"/>
<path d="M0 0 C0.99 0.99 1.98 1.98 3 3 C2.67 3.66 2.34 4.32 2 5 C0.68 5 -0.64 5 -2 5 C-2 3.68 -2 2.36 -2 1 C-1.34 0.67 -0.68 0.34 0 0 Z " fill="#0596D7" transform="translate(87,52)"/>
<path d="M0 0 C0.99 1.32 1.98 2.64 3 4 C2.34 4.66 1.68 5.32 1 6 C0.67 5.34 0.34 4.68 0 4 C-0.33 4.66 -0.66 5.32 -1 6 C-1.66 6 -2.32 6 -3 6 C-3.33 5.01 -3.66 4.02 -4 3 C-3.01 2.67 -2.02 2.34 -1 2 C-0.67 1.34 -0.34 0.68 0 0 Z " fill="#76C3D3" transform="translate(122,34)"/>
<path d="M0 0 C-0.33 0.99 -0.66 1.98 -1 3 C-5.455 3.495 -5.455 3.495 -10 4 C-4 0 -4 0 0 0 Z " fill="#2F9BC6" transform="translate(176,46)"/>
<path d="M0 0 C0.66 0.33 1.32 0.66 2 1 C2 1.66 2 2.32 2 3 C2.99 2.67 3.98 2.34 5 2 C4.34 3.32 3.68 4.64 3 6 C2.34 6 1.68 6 1 6 C0.34 4.35 -0.32 2.7 -1 1 C-0.67 0.67 -0.34 0.34 0 0 Z " fill="#049AE2" transform="translate(183,43)"/>
<path d="M0 0 C0.66 0 1.32 0 2 0 C2.625 2.375 2.625 2.375 3 5 C2.34 5.66 1.68 6.32 1 7 C0.34 5.02 -0.32 3.04 -1 1 C-0.67 0.67 -0.34 0.34 0 0 Z " fill="#0199E6" transform="translate(191,32)"/>
</svg>
